<svg class="logo-typography" height="17vw" xmlns="http://www.w3.org/2000/svg" viewBox="0 0 2327.5 741"><defs><style>@font-face{font-family:&quot;Luxa&quot;;src:url(&quot;/2019/assets/fonts/luxa.ttf&quot;) format(&quot;truetype&quot;)}</style></defs><style>.st0{fill:#18a5d1}.st2{fill:#f3b20c}.st3{font-family:&apos;Luxa&apos;}.st4{font-size:335px}</style><text transform="translate(1422.965 -561.71)" class="st2 st3 st4">INDIA</text><text transform="translate(43.694 -562.46)" class="st0 st3 st4">PYCON</text><path class="st0" d="M1483.7 536.5c-12 .3-23.2 6.3-30.2 16.1-5.9 6.5-10.5 11.6-20 11.6s-14.1-5.1-20-11.6c-6.8-10.1-18.1-16.1-30.2-16.1-12.1 0-23.4 6-30.2 16.1-5.9 6.5-10.5 11.6-19.9 11.6-9.5 0-14.1-5.1-20-11.6-6.8-10.1-18.1-16.1-30.2-16.1-12.1 0-23.4 6-30.2 16.1-5.9 6.5-10.5 11.6-19.9 11.6-9.5 0-14.1-5.1-19.9-11.6-7-9.8-18.2-15.8-30.2-16.1-12 .3-23.2 6.3-30.2 16.1-5.9 6.5-10.5 11.6-19.9 11.6-9.5 0-14.1-5.1-19.9-11.6-7-9.8-18.2-15.8-30.2-16.1-3.8 0-6.9 3.1-6.9 6.9s3.1 6.9 6.9 6.9c9.5 0 14.1 5.1 19.9 11.6 7 9.8 18.2 15.8 30.2 16.1 12-.3 23.2-6.3 30.2-16.1 5.9-6.5 10.5-11.6 19.9-11.6 9.5 0 14.1 5.1 19.9 11.6 7 9.8 18.2 15.8 30.2 16.1 12-.3 23.2-6.3 30.2-16.1 5.9-6.5 10.5-11.6 19.9-11.6 9.5 0 14.1 5.1 20 11.6 6.8 10.1 18.1 16.1 30.2 16.1 12.1 0 23.4-6 30.2-16.1 5.9-6.5 10.5-11.6 19.9-11.6 9.5 0 14.1 5.1 20 11.6 6.8 10.1 18.1 16.1 30.2 16.1 12.1 0 23.5-6 30.2-16.1 5.9-6.5 10.5-11.6 20-11.6 3.8 0 6.9-3.1 6.9-6.9s-3.1-6.9-6.9-6.9z"/><path d="M1082.5 508.8c9.5 0 14.1 5.1 19.9 11.6 7 9.8 18.2 15.8 30.2 16.1 12-.3 23.2-6.3 30.2-16.1 5.9-6.5 10.5-11.6 19.9-11.6 9.5 0 14.1 5.1 19.9 11.6 7 9.8 18.2 15.8 30.2 16.1 12-.3 23.2-6.3 30.2-16.1 5.9-6.5 10.5-11.6 19.9-11.6 9.5 0 14.1 5.1 20 11.6 6.8 10.1 18.1 16.1 30.2 16.1 12.1 0 23.4-6 30.2-16.1 5.9-6.5 10.5-11.6 19.9-11.6 9.5 0 14.1 5.1 20 11.6 6.8 10.1 18.1 16.1 30.2 16.1 12.1 0 23.5-6 30.2-16.1 5.9-6.5 10.5-11.6 20-11.6 3.8 0 6.9-3.1 6.9-6.9s-3.1-6.9-6.9-6.9c-12 .3-23.2 6.3-30.2 16.1-5.9 6.5-10.5 11.6-20 11.6s-14.1-5.1-20-11.6c-6.8-10.1-18.1-16.1-30.2-16.1-12.1 0-23.4 6-30.2 16.1-1.1 1.2-2.2 2.4-3.2 3.5l-24.2-164.8h19.7c3.8 0 6.9-3.1 6.9-6.9v-62.3c0-3.8-3.1-6.9-6.9-6.9s-6.9 3.1-6.9 6.9v6.9h-13.8V246h13.8c3.8 0 6.9-3.1 6.9-6.9 0-31.7-23.9-58.3-55.3-61.8V170c0-3.8-3.1-6.9-6.9-6.9s-6.9 3.1-6.9 6.9v7.3c-31.5 3.5-55.3 30.2-55.3 61.8 0 3.8 3.1 6.9 6.9 6.9h13.8v41.5h-13.8v-6.9c0-3.8-3.1-6.9-6.9-6.9s-6.9 3.1-6.9 6.9v62.3c0 3.8 3.1 6.9 6.9 6.9h19.7l-24.2 164.9c-1.1-1.1-2.2-2.3-3.3-3.6-7-9.8-18.2-15.8-30.2-16.1-12 .3-23.2 6.3-30.2 16.1-5.9 6.5-10.5 11.6-19.9 11.6-9.5 0-14.1-5.1-19.9-11.6-7-9.8-18.2-15.8-30.2-16.1-3.8 0-6.9 3.1-6.9 6.9s2.9 6.9 6.7 6.9zm243.5-62.2h-85.7l4.1-27.7h77.5l4.1 27.7zm2 13.8l2 13.8h-93.8l2-13.8h89.8zm-8.1-55.3h-73.5l2-13.8h69.4l2.1 13.8zm-6.6 106c-6.8-10.1-18.1-16.1-30.2-16.1-12.1 0-23.4 6-30.2 16.1-5.9 6.5-10.5 11.6-19.9 11.6-1.3 0-2.5-.1-3.8-.3l5-34.3h97.9l5 34.2c-1.3.2-2.6.3-3.9.4-9.5 0-14.1-5.1-19.9-11.6zm-30.2-320.4c24.1 0 44.5 17.7 47.9 41.5h-95.9c3.6-23.8 24-41.5 48-41.5zm-27.7 55.3h55.3v41.5H1290v-6.9c0-3.8-3.1-6.9-6.9-6.9s-6.9 3.1-6.9 6.9v6.9h-20.8V246zm-27.6 55.3h110.7v34.6h-110.7v-34.6zm83.9 48.4l4.1 27.7h-65.4l4.1-27.7h57.2z" fill="#444"/><path class="st2" d="M1231.7 304.8h103v27.3h-103z"/><path class="st0" d="M1483.7 495c-12 .3-23.2 6.3-30.2 16.1-5.9 6.5-10.5 11.6-20 11.6s-14.1-5.1-20-11.6c-6.8-10.1-18.1-16.1-30.2-16.1-12.1 0-23.4 6-30.2 16.1-5.9 6.5-10.5 11.6-19.9 11.6-9.5 0-14.1-5.1-20-11.6-6.8-10.1-18.1-16.1-30.2-16.1-12.1 0-23.4 6-30.2 16.1-5.9 6.5-10.5 11.6-19.9 11.6-9.5 0-14.1-5.1-19.9-11.6-7-9.8-18.2-15.8-30.2-16.1-12 .3-23.2 6.3-30.2 16.1-5.9 6.5-10.5 11.6-19.9 11.6-9.5 0-14.1-5.1-19.9-11.6-7-9.8-18.2-15.8-30.2-16.1-3.8 0-6.9 3.1-6.9 6.9s3.1 6.9 6.9 6.9c9.5 0 14.1 5.1 19.9 11.6 7 9.8 18.2 15.8 30.2 16.1 12-.3 23.2-6.3 30.2-16.1 5.9-6.5 10.5-11.6 19.9-11.6 9.5 0 14.1 5.1 19.9 11.6 7 9.8 18.2 15.8 30.2 16.1 12-.3 23.2-6.3 30.2-16.1 5.9-6.5 10.5-11.6 19.9-11.6 9.5 0 14.1 5.1 20 11.6 6.8 10.1 18.1 16.1 30.2 16.1 12.1 0 23.4-6 30.2-16.1 5.9-6.5 10.5-11.6 19.9-11.6 9.5 0 14.1 5.1 20 11.6 6.8 10.1 18.1 16.1 30.2 16.1 12.1 0 23.5-6 30.2-16.1 5.9-6.5 10.5-11.6 20-11.6 3.8 0 6.9-3.1 6.9-6.9s-3.1-6.9-6.9-6.9z"/><text transform="translate(1422.965 488.08)" class="st2 st3 st4">INDIA</text><text transform="translate(1445.043 235.76)" class="st0 st3" font-size="123.1">Chennai, 2019</text><path opacity=".6" fill="#f3b20c" d="M1213.8 222.2l3.1 10.2-213.6 102.9-23.6-66.7z"/><text transform="translate(43.694 487.33)" class="st0 st3 st4">PYCON</text></svg>
