<?xml version="1.0" standalone="no"?>
<!DOCTYPE svg PUBLIC "-//W3C//DTD SVG 20010904//EN"
 "http://www.w3.org/TR/2001/REC-SVG-20010904/DTD/svg10.dtd">
<svg version="1.0" xmlns="http://www.w3.org/2000/svg"
 width="429.000000pt" height="429.000000pt" viewBox="0 0 429.000000 429.000000"
 preserveAspectRatio="xMidYMid meet">
<metadata>
Created by potrace 1.11, written by Peter Selinger 2001-2013
</metadata>
<g transform="translate(0.000000,429.000000) scale(0.100000,-0.100000)"
fill="#000000" stroke="none">
<path d="M1938 4285 c-2 -1 -39 -5 -83 -9 -310 -23 -563 -122 -684 -269 -13
-16 -35 -57 -49 -90 -24 -60 -25 -69 -27 -337 -1 -151 1 -281 3 -287 3 -10
115 -13 512 -13 l509 0 -2 -40 c-1 -22 -6 -41 -12 -43 -5 -2 -338 -2 -740 -1
-581 1 -743 -1 -795 -12 -201 -42 -379 -210 -474 -447 -36 -91 -69 -232 -83
-357 -10 -84 -10 -374 -1 -465 37 -357 162 -614 367 -749 110 -73 155 -82 413
-81 l223 0 1 295 c1 162 4 315 8 340 30 189 122 315 294 400 123 61 121 61
767 62 325 0 623 5 663 10 223 27 383 167 427 375 8 36 14 350 15 838 2 423 0
437 -55 531 -47 80 -164 179 -270 228 -40 19 -137 54 -165 61 -97 23 -153 34
-195 40 -28 3 -64 8 -80 11 -34 5 -482 14 -487 9z"/>
<path d="M3269 3206 c-1 -1 -2 -134 -3 -296 -3 -334 -12 -402 -73 -528 -42
-89 -114 -153 -236 -211 -78 -36 -96 -42 -192 -57 -22 -3 -301 -7 -620 -8
-609 -3 -615 -3 -741 -49 -149 -55 -261 -177 -294 -322 -14 -60 -19 -255 -20
-815 -1 -344 2 -434 14 -472 40 -133 152 -246 319 -323 74 -34 225 -81 294
-90 21 -3 47 -7 58 -10 124 -25 712 -26 754 0 3 1 29 6 56 9 239 32 462 147
545 281 49 79 52 104 54 407 l2 286 -491 0 c-269 1 -500 1 -511 1 -19 1 -22 6
-20 43 l1 43 760 1 c846 0 811 -2 941 69 212 118 344 354 399 715 11 69 13
407 4 485 -14 115 -19 147 -35 215 -9 36 -17 72 -19 80 -2 9 -17 51 -34 95
-81 210 -224 367 -389 427 -51 19 -81 21 -289 23 -128 1 -234 1 -234 1z"/>
</g>
</svg>
