<?xml version="1.0" encoding="UTF-8" standalone="no"?>
<svg
   xmlns:dc="http://purl.org/dc/elements/1.1/"
   xmlns:cc="http://creativecommons.org/ns#"
   xmlns:rdf="http://www.w3.org/1999/02/22-rdf-syntax-ns#"
   xmlns:svg="http://www.w3.org/2000/svg"
   xmlns="http://www.w3.org/2000/svg"
   xmlns:sodipodi="http://sodipodi.sourceforge.net/DTD/sodipodi-0.dtd"
   xmlns:inkscape="http://www.inkscape.org/namespaces/inkscape"
   class="logo-typography"
   height="17vw"
   viewBox="0 0 2327.5 741"
   id="svg2"
   version="1.1"
   inkscape:version="0.48.5 r10040"
   width="100%"
   sodipodi:docname="typography-black.svg">
  <metadata
     id="metadata18">
    <rdf:RDF>
      <cc:Work
         rdf:about="">
        <dc:format>image/svg+xml</dc:format>
        <dc:type
           rdf:resource="http://purl.org/dc/dcmitype/StillImage" />
      </cc:Work>
    </rdf:RDF>
  </metadata>
  <sodipodi:namedview
     pagecolor="#ffffff"
     bordercolor="#666666"
     borderopacity="1"
     objecttolerance="10"
     gridtolerance="10"
     guidetolerance="10"
     inkscape:pageopacity="0"
     inkscape:pageshadow="2"
     inkscape:window-width="1366"
     inkscape:window-height="719"
     id="namedview16"
     showgrid="false"
     inkscape:zoom="0.14006445"
     inkscape:cx="1163.75"
     inkscape:cy="370.5"
     inkscape:window-x="0"
     inkscape:window-y="26"
     inkscape:window-maximized="1"
     inkscape:current-layer="text28" />
  <defs
     id="defs4">
    <style
       id="style6">@font-face{font-family:&quot;Luxa&quot;;src:url(&quot;/2019/assets/fonts/luxa.ttf&quot;) format(&quot;truetype&quot;)}</style>
  </defs>
  <style
     id="style8">.st0{fill:#18a5d1}.st2{fill:#f3b20c}.st3{font-family:'Luxa'}.st4{font-size:335px}</style>
  <path
     class="st0"
     d="M1483.7 536.5c-12 .3-23.2 6.3-30.2 16.1-5.9 6.5-10.5 11.6-20 11.6s-14.1-5.1-20-11.6c-6.8-10.1-18.1-16.1-30.2-16.1-12.1 0-23.4 6-30.2 16.1-5.9 6.5-10.5 11.6-19.9 11.6-9.5 0-14.1-5.1-20-11.6-6.8-10.1-18.1-16.1-30.2-16.1-12.1 0-23.4 6-30.2 16.1-5.9 6.5-10.5 11.6-19.9 11.6-9.5 0-14.1-5.1-19.9-11.6-7-9.8-18.2-15.8-30.2-16.1-12 .3-23.2 6.3-30.2 16.1-5.9 6.5-10.5 11.6-19.9 11.6-9.5 0-14.1-5.1-19.9-11.6-7-9.8-18.2-15.8-30.2-16.1-3.8 0-6.9 3.1-6.9 6.9s3.1 6.9 6.9 6.9c9.5 0 14.1 5.1 19.9 11.6 7 9.8 18.2 15.8 30.2 16.1 12-.3 23.2-6.3 30.2-16.1 5.9-6.5 10.5-11.6 19.9-11.6 9.5 0 14.1 5.1 19.9 11.6 7 9.8 18.2 15.8 30.2 16.1 12-.3 23.2-6.3 30.2-16.1 5.9-6.5 10.5-11.6 19.9-11.6 9.5 0 14.1 5.1 20 11.6 6.8 10.1 18.1 16.1 30.2 16.1 12.1 0 23.4-6 30.2-16.1 5.9-6.5 10.5-11.6 19.9-11.6 9.5 0 14.1 5.1 20 11.6 6.8 10.1 18.1 16.1 30.2 16.1 12.1 0 23.5-6 30.2-16.1 5.9-6.5 10.5-11.6 20-11.6 3.8 0 6.9-3.1 6.9-6.9s-3.1-6.9-6.9-6.9z"
     id="path14" />
  <path
     d="M1082.5 508.8c9.5 0 14.1 5.1 19.9 11.6 7 9.8 18.2 15.8 30.2 16.1 12-.3 23.2-6.3 30.2-16.1 5.9-6.5 10.5-11.6 19.9-11.6 9.5 0 14.1 5.1 19.9 11.6 7 9.8 18.2 15.8 30.2 16.1 12-.3 23.2-6.3 30.2-16.1 5.9-6.5 10.5-11.6 19.9-11.6 9.5 0 14.1 5.1 20 11.6 6.8 10.1 18.1 16.1 30.2 16.1 12.1 0 23.4-6 30.2-16.1 5.9-6.5 10.5-11.6 19.9-11.6 9.5 0 14.1 5.1 20 11.6 6.8 10.1 18.1 16.1 30.2 16.1 12.1 0 23.5-6 30.2-16.1 5.9-6.5 10.5-11.6 20-11.6 3.8 0 6.9-3.1 6.9-6.9s-3.1-6.9-6.9-6.9c-12 .3-23.2 6.3-30.2 16.1-5.9 6.5-10.5 11.6-20 11.6s-14.1-5.1-20-11.6c-6.8-10.1-18.1-16.1-30.2-16.1-12.1 0-23.4 6-30.2 16.1-1.1 1.2-2.2 2.4-3.2 3.5l-24.2-164.8h19.7c3.8 0 6.9-3.1 6.9-6.9v-62.3c0-3.8-3.1-6.9-6.9-6.9s-6.9 3.1-6.9 6.9v6.9h-13.8V246h13.8c3.8 0 6.9-3.1 6.9-6.9 0-31.7-23.9-58.3-55.3-61.8V170c0-3.8-3.1-6.9-6.9-6.9s-6.9 3.1-6.9 6.9v7.3c-31.5 3.5-55.3 30.2-55.3 61.8 0 3.8 3.1 6.9 6.9 6.9h13.8v41.5h-13.8v-6.9c0-3.8-3.1-6.9-6.9-6.9s-6.9 3.1-6.9 6.9v62.3c0 3.8 3.1 6.9 6.9 6.9h19.7l-24.2 164.9c-1.1-1.1-2.2-2.3-3.3-3.6-7-9.8-18.2-15.8-30.2-16.1-12 .3-23.2 6.3-30.2 16.1-5.9 6.5-10.5 11.6-19.9 11.6-9.5 0-14.1-5.1-19.9-11.6-7-9.8-18.2-15.8-30.2-16.1-3.8 0-6.9 3.1-6.9 6.9s2.9 6.9 6.7 6.9zm243.5-62.2h-85.7l4.1-27.7h77.5l4.1 27.7zm2 13.8l2 13.8h-93.8l2-13.8h89.8zm-8.1-55.3h-73.5l2-13.8h69.4l2.1 13.8zm-6.6 106c-6.8-10.1-18.1-16.1-30.2-16.1-12.1 0-23.4 6-30.2 16.1-5.9 6.5-10.5 11.6-19.9 11.6-1.3 0-2.5-.1-3.8-.3l5-34.3h97.9l5 34.2c-1.3.2-2.6.3-3.9.4-9.5 0-14.1-5.1-19.9-11.6zm-30.2-320.4c24.1 0 44.5 17.7 47.9 41.5h-95.9c3.6-23.8 24-41.5 48-41.5zm-27.7 55.3h55.3v41.5H1290v-6.9c0-3.8-3.1-6.9-6.9-6.9s-6.9 3.1-6.9 6.9v6.9h-20.8V246zm-27.6 55.3h110.7v34.6h-110.7v-34.6zm83.9 48.4l4.1 27.7h-65.4l4.1-27.7h57.2z"
     fill="#444"
     id="path16" />
  <path
     class="st2"
     d="M1231.7 304.8h103v27.3h-103z"
     id="path18" />
  <path
     class="st0"
     d="M1483.7 495c-12 .3-23.2 6.3-30.2 16.1-5.9 6.5-10.5 11.6-20 11.6s-14.1-5.1-20-11.6c-6.8-10.1-18.1-16.1-30.2-16.1-12.1 0-23.4 6-30.2 16.1-5.9 6.5-10.5 11.6-19.9 11.6-9.5 0-14.1-5.1-20-11.6-6.8-10.1-18.1-16.1-30.2-16.1-12.1 0-23.4 6-30.2 16.1-5.9 6.5-10.5 11.6-19.9 11.6-9.5 0-14.1-5.1-19.9-11.6-7-9.8-18.2-15.8-30.2-16.1-12 .3-23.2 6.3-30.2 16.1-5.9 6.5-10.5 11.6-19.9 11.6-9.5 0-14.1-5.1-19.9-11.6-7-9.8-18.2-15.8-30.2-16.1-3.8 0-6.9 3.1-6.9 6.9s3.1 6.9 6.9 6.9c9.5 0 14.1 5.1 19.9 11.6 7 9.8 18.2 15.8 30.2 16.1 12-.3 23.2-6.3 30.2-16.1 5.9-6.5 10.5-11.6 19.9-11.6 9.5 0 14.1 5.1 19.9 11.6 7 9.8 18.2 15.8 30.2 16.1 12-.3 23.2-6.3 30.2-16.1 5.9-6.5 10.5-11.6 19.9-11.6 9.5 0 14.1 5.1 20 11.6 6.8 10.1 18.1 16.1 30.2 16.1 12.1 0 23.4-6 30.2-16.1 5.9-6.5 10.5-11.6 19.9-11.6 9.5 0 14.1 5.1 20 11.6 6.8 10.1 18.1 16.1 30.2 16.1 12.1 0 23.5-6 30.2-16.1 5.9-6.5 10.5-11.6 20-11.6 3.8 0 6.9-3.1 6.9-6.9s-3.1-6.9-6.9-6.9z"
     id="path20" />
  <g
     transform="translate(1422.965 488.08)"
     style="font-size:335px;fill:#f3b20c;font-family:Luxa"
     id="text22">
    <path
       d="m 57.62,0 -5.36,0 c -5.806713,0 -10.608375,-1.8983314 -14.405,-5.695 -3.573368,-4.0199903 -5.360032,-8.709986 -5.36,-14.07 l 0,-170.18 c -3.2e-5,-5.3598 1.786632,-9.93813 5.36,-13.735 3.796625,-4.01979 8.598287,-6.02979 14.405,-6.03 l 5.36,0 c 5.806603,2.1e-4 10.496599,2.01021 14.07,6.03 3.796591,3.79687 5.694923,8.3752 5.695,13.735 l 0,170.18 c -7.7e-5,5.360014 -1.898409,10.0500097 -5.695,14.07 C 68.116599,-1.8983314 63.426603,0 57.62,0"
       style="font-size:335px;fill:#f3b20c;font-family:Luxa"
       id="path3103" />
    <path
       d="m 274.84133,-209.375 c 5.13646,2.1e-4 9.60312,2.01021 13.4,6.03 4.01978,3.79687 6.02978,8.26353 6.03,13.4 l 0,170.515 c -2.2e-4,5.136681 -2.01022,9.7150097 -6.03,13.735 -3.79688,3.7966686 -8.26354,5.695 -13.4,5.695 l -5.695,0 c -7.59352,0 -13.17685,-3.014997 -16.75,-9.045 l -88.105,-106.195 c -1.34009,-1.78655 -3.35008,-2.23322 -6.03,-1.34 -2.45675,0.89345 -3.68508,2.56845 -3.685,5.025 l 0,92.125 c -8e-5,5.136681 -1.89841,9.7150097 -5.695,13.735 C 145.30793,-1.8983314 140.7296,0 135.14633,0 l -5.695,0 c -5.58338,0 -10.27338,-1.8983314 -14.07,-5.695 -3.57337,-4.0199903 -5.36003,-8.598319 -5.36,-13.735 l 0,-170.515 c -3e-5,-5.13647 1.78663,-9.60313 5.36,-13.4 3.79662,-4.01979 8.48662,-6.02979 14.07,-6.03 l 5.695,0 c 7.59327,2.1e-4 13.17659,3.01521 16.75,9.045 l 87.1,105.525 c 1.7865,2.010093 3.90817,2.568426 6.365,1.675 2.45649,-1.116572 3.68483,-2.903237 3.685,-5.36 l 0,-91.455 c -1.7e-4,-5.13647 1.89816,-9.60313 5.695,-13.4 4.01982,-4.01979 8.82148,-6.02979 14.405,-6.03 l 5.695,0 0,0"
       style="font-size:335px;fill:#f3b20c;font-family:Luxa"
       id="path3105" />
    <path
       d="m 515.9,-105.19 0,0.335 0,1.675 0,2.68 c -0.67022,13.176754 -3.23855,25.348408 -7.705,36.515 -2.68021,6.253391 -5.80688,12.171718 -9.38,17.755 -3.57354,5.583374 -7.7052,10.720036 -12.395,15.41 -9.38018,9.826688 -20.54684,17.308347 -33.5,22.445 C 440.41319,-2.7916639 426.11987,0 410.04,0 l -61.975,0 c -5.36005,0 -9.93838,-2.1216645 -13.735,-6.365 -3.57337,-4.243323 -5.36004,-9.044985 -5.36,-14.405 l 0,-167.835 c -4e-5,-5.35981 1.78663,-10.16147 5.36,-14.405 3.79662,-4.24313 8.37495,-6.36479 13.735,-6.365 l 61.975,0 c 15.85653,2.1e-4 30.14985,2.68021 42.88,8.04 12.95316,5.58353 24.11982,13.17685 33.5,22.78 4.6898,4.69017 8.82146,9.82684 12.395,15.41 3.57312,5.58349 6.69979,11.50182 9.38,17.755 0.89312,2.45681 1.78645,4.91347 2.68,7.37 0.89311,2.4568 1.56311,4.91347 2.01,7.37 -2.2e-4,0.22346 -2.2e-4,0.4468 0,0.67 0.22311,1.3e-4 0.33478,0.1118 0.335,0.335 1.78644,7.81679 2.67978,15.63345 2.68,23.45 l 0,1.005 m -45.56,-0.335 c -1.8e-4,-2.00989 -0.11184,-4.01989 -0.335,-6.03 -0.22351,-2.00989 -0.55851,-3.90822 -1.005,-5.695 -1.8e-4,-0.44655 -0.11184,-0.78155 -0.335,-1.005 -0.44684,-1.11655 -0.89351,-2.23321 -1.34,-3.35 -0.22351,-1.33988 -0.55851,-2.67988 -1.005,-4.02 -2.68017,-6.2532 -6.36517,-11.9482 -11.055,-17.085 -2.45683,-2.45652 -5.13682,-4.57819 -8.04,-6.365 -2.68015,-2.00985 -5.69515,-3.79651 -9.045,-5.36 -6.70014,-2.67984 -14.07013,-4.01984 -22.11,-4.02 l -31.825,0 c -2.68009,1.6e-4 -5.02509,1.11682 -7.035,3.35 -1.78675,2.23349 -2.68008,4.69015 -2.68,7.37 l 0,86.095 c -8e-5,2.680059 0.89325,5.136723 2.68,7.37 2.00991,2.010052 4.35491,3.015051 7.035,3.015 l 31.825,0 c 4.01987,5.1e-5 7.81654,-0.223282 11.39,-0.67 3.79653,-0.669947 7.36986,-1.786613 10.72,-3.35 3.34985,-1.339943 6.36485,-3.014942 9.045,-5.025 2.90318,-2.009938 5.58317,-4.243269 8.04,-6.7 4.68983,-4.689928 8.37483,-10.384923 11.055,-17.085 2.45649,-6.02991 3.68482,-12.283237 3.685,-18.76 0.22316,-0.22323 0.33482,-0.55823 0.335,-1.005 l 0,-1.005 0,-0.67"
       style="font-size:335px;fill:#f3b20c;font-family:Luxa"
       id="path3107" />
    <path
       d="m 574.51453,0 -5.36,0 c -5.80671,0 -10.60837,-1.8983314 -14.405,-5.695 -3.57337,-4.0199903 -5.36003,-8.709986 -5.36,-14.07 l 0,-170.18 c -3e-5,-5.3598 1.78663,-9.93813 5.36,-13.735 3.79663,-4.01979 8.59829,-6.02979 14.405,-6.03 l 5.36,0 c 5.8066,2.1e-4 10.4966,2.01021 14.07,6.03 3.79659,3.79687 5.69492,8.3752 5.695,13.735 l 0,170.18 c -8e-5,5.360014 -1.89841,10.0500097 -5.695,14.07 -3.5734,3.7966686 -8.2634,5.695 -14.07,5.695"
       style="font-size:335px;fill:#f3b20c;font-family:Luxa"
       id="path3109" />
    <path
       d="m 716.36086,-209.375 13.735,0 c 4.24319,2.1e-4 8.15152,1.22854 11.725,3.685 3.57318,2.23354 6.25318,5.47187 8.04,9.715 l 70.35,166.83 c 1.56311,3.350026 2.12144,6.811689 1.675,10.385 -0.22356,3.350015 -1.34023,6.476679 -3.35,9.38 -1.78689,2.6800067 -4.24355,4.9133378 -7.37,6.7 -3.12688,1.78666756 -6.58854,2.68 -10.385,2.68 l -0.67,0 c -4.46687,0 -8.59853,-1.1166655 -12.395,-3.35 -3.57352,-2.4566609 -6.25352,-5.8066575 -8.04,-10.05 -4.24351,-10.049977 -10.83184,-18.089969 -19.765,-24.12 -8.93349,-6.25329 -18.87181,-9.379953 -29.815,-9.38 l -15.745,0 c -10.94344,4.7e-5 -20.88177,3.12671 -29.815,9.38 -8.93341,6.030031 -15.52174,14.070023 -19.765,24.12 -1.5634,4.2433425 -4.2434,7.5933391 -8.04,10.05 -3.57339,2.2333345 -7.48172,3.35 -11.725,3.35 -3.79671,0 -7.25838,-0.89333244 -10.385,-2.68 -3.1267,-1.7866622 -5.69503,-4.0199933 -7.705,-6.7 -1.7867,-2.903321 -2.90336,-6.029985 -3.35,-9.38 -0.22336,-3.573311 0.44664,-7.034974 2.01,-10.385 l 70.35,-166.83 c 1.78656,-4.24313 4.46656,-7.48146 8.04,-9.715 3.79655,-2.45646 7.92822,-3.68479 12.395,-3.685 m 23.115,97.15 c -1.56348,-3.79655 -4.02014,-6.58821 -7.37,-8.375 -3.1268,-2.00988 -6.4768,-3.01488 -10.05,-3.015 -3.35012,1.2e-4 -6.70012,1.00512 -10.05,3.015 -3.12678,1.78679 -5.47178,4.57845 -7.035,8.375 -1.11678,2.90344 -1.45178,5.91844 -1.005,9.045 0.44656,2.90343 1.45156,5.583431 3.015,8.04 1.78655,2.233426 4.01988,4.131758 6.7,5.695 2.67988,1.563421 5.69487,2.345087 9.045,2.345 3.34987,8.7e-5 6.2532,-0.781579 8.71,-2.345 2.67986,-1.563242 4.80152,-3.461574 6.365,-5.695 1.56319,-2.456569 2.45652,-5.13657 2.68,-8.04 0.44652,-3.12656 0.11152,-6.14156 -1.005,-9.045"
       style="font-size:335px;fill:#f3b20c;font-family:Luxa"
       id="path3111" />
  </g>
  <g
     transform="translate(1445.043 235.76)"
     style="font-size:123.09999847px;fill:#18a5d1;font-family:Luxa"
     id="text24">
    <path
       d="m 64.258199,-19.4498 c 1.559201,-1.313046 3.241566,-1.846478 5.0471,-1.6003 1.887462,0.164154 3.528794,0.86172 4.924,2.0927 l 0.4924,1.1079 c 0.738525,0.738617 1.271957,1.64135 1.6003,2.7082 0.32819,0.984814 0.45129,1.969613 0.3693,2.9544 -0.08214,0.984811 -0.369376,1.928577 -0.8617,2.8313001 -0.492475,0.9027418 -1.190041,1.641341 -2.0927,2.2158 l 0,0.2462 c -1.149006,0.6565395 -2.338971,1.3130722 -3.5699,1.9696 -1.149002,0.574471 -2.338968,1.1899703 -3.5699,1.8464999 C 61.755104,-1.0258323 56.46181,0 50.717199,0 44.972488,0 39.679193,-1.0258323 34.8373,-3.0775 c -4.841964,-2.0516615 -9.027359,-4.7598587 -12.5562,-8.1246 -3.364752,-3.610918 -6.07295,-7.632181 -8.1246,-12.0638 -1.887546,-4.923971 -2.831311,-9.930033 -2.8313,-15.0182 l 0,-0.3693 c -1.1e-5,-2.544025 0.246188,-5.047056 0.7386,-7.509099 0.492387,-2.544018 1.27202,-4.964983 2.3389,-7.2629 0.902718,-2.297811 2.010617,-4.472576 3.3237,-6.5243 1.395114,-2.051605 2.995412,-3.898103 4.8009,-5.5395 1.641309,-1.8054 3.52884,-3.364665 5.6626,-4.6778 2.215769,-1.395062 4.513634,-2.626061 6.8936,-3.693 4.595693,-2.051591 9.806921,-3.077423 15.633699,-3.0775 5.744611,7.7e-5 11.037905,1.025909 15.8799,3.0775 0.902666,0.410407 1.723332,0.82074 2.462,1.231 0.73853,0.328339 1.436096,0.697638 2.0927,1.1079 l 2.5851,1.7234 c 1.805391,1.313135 2.79019,3.036533 2.9544,5.1702 0.246123,2.133796 -0.41041,3.980294 -1.9696,5.5395 l -0.7386,1.1079 c -1.395206,1.39519 -3.077571,2.174822 -5.0471,2.3389 -1.8876,0.08212 -3.610998,-0.533377 -5.1702,-1.8465 l -0.7386,-0.7386 c -0.574529,-0.328208 -1.148995,-0.615441 -1.7234,-0.8617 -0.574527,-0.246141 -1.10796,-0.492341 -1.6003,-0.7386 -3.036523,-1.313006 -6.031953,-1.969538 -8.9863,-1.9696 -1.641382,6.2e-5 -3.24168,0.164195 -4.8009,0.4924 -1.559311,0.328327 -3.036509,0.73866 -4.4316,1.231 -2.708238,1.313125 -5.006103,3.036523 -6.893599,5.1702 -1.969633,1.887586 -3.487865,4.349584 -4.5547,7.386 -1.066896,2.708244 -1.600329,5.662641 -1.6003,8.863199 -2.9e-5,3.446836 0.533404,6.524333 1.6003,9.2325 0.902702,2.708227 2.420934,5.170225 4.5547,7.386 1.066831,1.066888 2.174729,2.051687 3.3237,2.9544 1.148894,0.820685 2.420926,1.477218 3.816099,1.9696 1.395091,0.65655 2.831256,1.148949 4.3085,1.4772 1.477153,0.328282 3.036418,0.492415 4.6778,0.4924 1.641281,1.5e-5 3.24158,-0.164118 4.8009,-0.4924 1.55921,-0.328251 3.036408,-0.738583 4.4316,-1.231 0.73854,-0.410316 1.436106,-0.820649 2.0927,-1.231 0.656471,-0.410315 1.313004,-0.861681 1.9696,-1.3541 l 0.2462,0"
       style="font-size:123.09999847px;fill:#18a5d1;font-family:Luxa"
       id="path3078" />
    <path
       d="m 140.46287,-29.7902 0,22.8966001 c -7e-5,1.8875383 -0.69763,3.52887 -2.0927,4.9239999 C 137.05704,-0.65653267 135.45674,0 133.56927,0 l -2.3389,0 c -1.80552,0 -3.36479,-0.65653267 -4.6778,-1.9696 -1.31312,-1.3951299 -1.96965,-3.0364616 -1.9696,-4.9239999 l 0,-21.5425001 0,-1.8465 c -0.0821,-0.328236 -0.12315,-1.230968 -0.1231,-2.7082 -5e-5,-1.559232 -0.32832,-3.200563 -0.9848,-4.924 -0.57452,-1.72336 -1.60035,-3.241592 -3.0775,-4.554699 -1.39518,-1.39509 -3.52891,-2.092656 -6.4012,-2.0927 -2.21584,4.4e-5 -3.98027,0.533477 -5.2933,1.6003 -1.23103,0.984841 -2.1748,2.09274 -2.8313,3.323699 -0.5745,1.231039 -0.9438,2.421004 -1.1079,3.5699 -0.16416,1.066902 -0.24623,1.641368 -0.2462,1.7234 l 0,27.2051001 c -3e-5,1.8875386 -0.73863,3.5699035 -2.2158,5.0470999 C 100.90671,-0.69756596 99.265378,0 97.377867,0 l -2.0927,0 c -2.051683,0 -3.816115,-0.69756596 -5.2933,-2.0927 -1.395145,-1.4771964 -2.092711,-3.1595613 -2.0927,-5.0470999 l 0,-44.9314991 0,-17.7264 c -1.1e-5,-1.887462 0.697555,-3.528793 2.0927,-4.924 1.477185,-1.477124 3.241617,-2.215723 5.2933,-2.2158 l 2.0927,0 c 1.887511,7.7e-5 3.528843,0.738676 4.924003,2.2158 1.47717,1.395207 2.21577,3.036538 2.2158,4.924 l 0,10.5866 c -3e-5,0.656592 0.24617,1.190024 0.7386,1.6003 0.57443,0.328324 1.18993,0.369357 1.8465,0.1231 1.1489,-0.410276 2.66713,-0.779575 4.5547,-1.1079 1.96956,-0.410275 4.39052,-0.615441 7.2629,-0.6155 3.69295,5.9e-5 6.77045,0.615558 9.2325,1.8465 2.46194,1.148989 4.47257,2.667221 6.0319,4.5547 1.64127,1.805517 2.87227,3.816149 3.693,6.0319 0.8206,2.133778 1.39507,4.226475 1.7234,6.2781 0.41027,1.969638 0.61543,3.73407 0.6155,5.293299 0.082,1.559301 0.16407,2.626166 0.2462,3.2006 l 0,2.2158"
       style="font-size:123.09999847px;fill:#18a5d1;font-family:Luxa"
       id="path3080" />
    <path
       d="m 205.14998,-32.9908 c 0.16407,0.656566 0.24614,1.313099 0.2462,1.9696 -6e-5,0.656564 -6e-5,1.436197 0,2.3389 l 0,0.2462 c -6e-5,1.395161 -0.49246,2.585126 -1.4772,3.5699 -0.98486,0.984824 -2.17482,1.477224 -3.5699,1.4772 l -10.3404,0 -20.3115,0 c -0.57449,2.4e-5 -1.06689,0.246223 -1.4772,0.7386 -0.32829,0.492422 -0.36932,1.066889 -0.1231,1.7234 0.24618,0.410354 0.45134,0.779654 0.6155,1.1079 0.16411,0.328286 0.32824,0.574486 0.4924,0.7386 0.16411,0.246219 0.32824,0.492419 0.4924,0.7386 0.16411,0.164152 0.32824,0.328285 0.4924,0.4924 1.06684,1.313083 2.50301,2.379949 4.3085,3.2006 0.9027,0.410348 1.80544,0.697581 2.7082,0.8617 0.98477,0.164147 2.0106,0.246214 3.0775,0.2462 2.54403,1.4e-5 4.80086,-0.451353 6.7705,-1.3541 0.24616,-0.164118 0.53339,-0.328251 0.8617,-0.4924 0.32822,-0.164118 0.61546,-0.328251 0.8617,-0.4924 1.31302,-0.902716 2.74919,-1.272016 4.3085,-1.1079 1.55922,0.16415 2.91332,0.861716 4.0623,2.0927 1.31301,1.148947 1.96955,2.667179 1.9696,4.5547 -5e-5,1.5592756 -0.49245,2.8313076 -1.4772,3.8161001 -0.16419,0.5744726 -0.61555,1.1489387 -1.3541,1.7234 -1.14898,0.8206706 -2.29792,1.4772033 -3.4468,1.9695999 C 189.4752,-0.94376571 185.08464,0 179.66828,0 c -4.2675,0 -8.04256,-0.73859925 -11.3252,-2.2158 -1.88755,-0.8206636 -3.56992,-1.723396 -5.0471,-2.7081999 -1.39515,-0.9847941 -2.79028,-2.1747596 -4.1854,-3.5699 -1.14895,-1.1489237 -2.25684,-2.5030221 -3.3237,-4.0623001 -1.06688,-1.559252 -1.96961,-3.159551 -2.7082,-4.8009 -0.65654,-1.395114 -1.14894,-2.913346 -1.4772,-4.5547 -0.24621,-1.641309 -0.36931,-3.241608 -0.3693,-4.8009 l 0,-0.2462 0,-1.3541 0,-0.4924 c -1e-5,-0.73857 -1e-5,-1.436136 0,-2.0927 -1e-5,-0.656501 0.0821,-1.354067 0.2462,-2.0927 0.0821,-0.328233 0.16413,-1.148899 0.2462,-2.462 0.16413,-1.313029 0.53343,-2.831261 1.1079,-4.5547 0.57446,-1.723358 1.39512,-3.528823 2.462,-5.416399 1.14892,-1.969553 2.70819,-3.733985 4.6778,-5.2933 2.05165,-1.641281 4.55468,-2.99538 7.5091,-4.0623 2.95437,-1.066811 6.60634,-1.600244 10.9559,-1.6003 4.26743,5.6e-5 7.87836,0.533489 10.8328,1.6003 2.95435,0.984853 5.41635,2.297919 7.386,3.9392 1.96955,1.559316 3.48778,3.323747 4.5547,5.2933 1.14888,1.887577 2.01057,3.693041 2.5851,5.416399 0.57441,1.723439 0.90267,3.241671 0.9848,4.5547 0.16407,1.313101 0.28717,2.1748 0.3693,2.5851 m -16.8647,0 c 0.49236,3.3e-5 0.86166,-0.205133 1.1079,-0.6155 0.24616,-0.410299 0.28719,-0.861665 0.1231,-1.3541 -0.16418,-0.738564 -0.45141,-1.55923 -0.8617,-2.462 -0.41038,-0.984761 -1.02588,-1.887494 -1.8465,-2.7082 -0.82071,-0.902692 -1.92861,-1.641291 -3.3237,-2.215799 -1.3131,-0.656491 -2.99547,-0.984757 -5.0471,-0.9848 -2.21583,4.3e-5 -4.0213,0.328309 -5.4164,0.9848 -1.31309,0.574508 -2.37996,1.313107 -3.2006,2.215799 -0.82069,0.820706 -1.43619,1.723439 -1.8465,2.7082 -0.32829,0.90277 -0.53346,1.723436 -0.6155,2.462 -0.16416,0.492435 -0.12312,0.943801 0.1231,1.3541 0.32824,0.410367 0.69754,0.615533 1.1079,0.6155 l 19.696,0"
       style="font-size:123.09999847px;fill:#18a5d1;font-family:Luxa"
       id="path3082" />
    <path
       d="m 266.1268,-30.5288 c -6e-5,0.410364 0.041,0.779663 0.1231,1.1079 0.082,0.328296 0.12304,0.697596 0.1231,1.1079 l 0,21.6656001 c -6e-5,1.8875381 -0.65659,3.4878364 -1.9696,4.8008999 C 263.17234,-0.61549938 261.65411,0 259.8487,0 l -2.2158,0 c -1.88758,0 -3.48788,-0.61549938 -4.8009,-1.8465 -1.23105,-1.3130635 -1.84655,-2.9133618 -1.8465,-4.8008999 l 0,-20.4346001 0,-1.7234 c -5e-5,-0.328237 -5e-5,-1.189936 0,-2.5851 -5e-5,-1.477167 -0.28728,-3.036432 -0.8617,-4.6778 -0.49244,-1.641295 -1.43621,-3.118494 -2.8313,-4.431599 -1.31311,-1.313025 -3.32374,-1.969558 -6.0319,-1.9696 -2.21583,4.2e-5 -3.93923,0.492441 -5.1702,1.4772 -1.23103,0.98484 -2.13376,2.051705 -2.7082,3.200599 -0.57449,1.14897 -0.94379,2.256869 -1.1079,3.3237 -0.0821,1.0669 -0.12313,1.641367 -0.1231,1.7234 l 0,25.8510001 c -3e-5,1.8875383 -0.65656,3.52887 -1.9696,4.9239999 C 228.86851,-0.65653267 227.26821,0 225.3807,0 l -2.2158,0 c -1.88755,0 -3.48785,-0.65653267 -4.8009,-1.9696 -1.31308,-1.3951299 -1.96961,-3.0364616 -1.9696,-4.9239999 l 0,-42.5925991 c -1e-5,-1.887482 0.65652,-3.487781 1.9696,-4.8009 1.31305,-1.395078 2.91335,-2.092644 4.8009,-2.0927 l 2.2158,0 c 0.90271,5.6e-5 1.68235,0.164189 2.3389,0.4924 0.73858,0.328322 1.43614,0.738655 2.0927,1.231 1.31304,0.984853 2.74921,1.231053 4.3085,0.7386 3.28263,-1.641278 7.1808,-2.461944 11.6945,-2.462 3.52882,5.6e-5 6.44219,0.574522 8.7401,1.7234 2.37988,1.148987 4.30845,2.585152 5.7857,4.3085 1.55921,1.723448 2.70814,3.652013 3.4468,5.7857 0.73854,2.051709 1.27197,4.021307 1.6003,5.908799 0.32821,1.887571 0.49234,3.610969 0.4924,5.1702 0.082,1.477232 0.16407,2.462031 0.2462,2.9544"
       style="font-size:123.09999847px;fill:#18a5d1;font-family:Luxa"
       id="path3084" />
    <path
       d="m 326.9555,-30.5288 c -6e-5,0.410364 0.041,0.779663 0.1231,1.1079 0.082,0.328296 0.12304,0.697596 0.1231,1.1079 l 0,21.6656001 c -6e-5,1.8875381 -0.65659,3.4878364 -1.9696,4.8008999 C 324.00105,-0.61549938 322.48282,0 320.6774,0 l -2.2158,0 c -1.88758,0 -3.48788,-0.61549938 -4.8009,-1.8465 -1.23104,-1.3130635 -1.84654,-2.9133618 -1.8465,-4.8008999 l 0,-20.4346001 0,-1.7234 c -4e-5,-0.328237 -4e-5,-1.189936 0,-2.5851 -4e-5,-1.477167 -0.28727,-3.036432 -0.8617,-4.6778 -0.49244,-1.641295 -1.4362,-3.118494 -2.8313,-4.431599 -1.3131,-1.313025 -3.32373,-1.969558 -6.0319,-1.9696 -2.21583,4.2e-5 -3.93923,0.492441 -5.1702,1.4772 -1.23102,0.98484 -2.13376,2.051705 -2.7082,3.200599 -0.57449,1.14897 -0.94379,2.256869 -1.1079,3.3237 -0.0821,1.0669 -0.12312,1.641367 -0.1231,1.7234 l 0,25.8510001 c -2e-5,1.8875383 -0.65655,3.52887 -1.9696,4.9239999 C 289.69722,-0.65653267 288.09692,0 286.2094,0 l -2.2158,0 c -1.88754,0 -3.48784,-0.65653267 -4.8009,-1.9696 -1.31307,-1.3951299 -1.96961,-3.0364616 -1.9696,-4.9239999 l 0,-42.5925991 c -10e-6,-1.887482 0.65653,-3.487781 1.9696,-4.8009 1.31306,-1.395078 2.91336,-2.092644 4.8009,-2.0927 l 2.2158,0 c 0.90272,5.6e-5 1.68235,0.164189 2.3389,0.4924 0.73858,0.328322 1.43615,0.738655 2.0927,1.231 1.31305,0.984853 2.74921,1.231053 4.3085,0.7386 3.28264,-1.641278 7.1808,-2.461944 11.6945,-2.462 3.52883,5.6e-5 6.44219,0.574522 8.7401,1.7234 2.37989,1.148987 4.30845,2.585152 5.7857,4.3085 1.55922,1.723448 2.70815,3.652013 3.4468,5.7857 0.73855,2.051709 1.27198,4.021307 1.6003,5.908799 0.32821,1.887571 0.49234,3.610969 0.4924,5.1702 0.082,1.477232 0.16408,2.462031 0.2462,2.9544"
       style="font-size:123.09999847px;fill:#18a5d1;font-family:Luxa"
       id="path3086" />
    <path
       d="m 360.82531,-56.379799 c 2.1337,5.6e-5 4.71879,0.410389 7.7553,1.231 3.11849,0.820721 6.07289,2.133786 8.8632,3.9392 2.87228,1.723449 5.29324,3.98028 7.2629,6.7705 2.05161,2.708241 3.07744,6.031938 3.0775,9.971099 l 0,27.2051001 c -6e-5,1.8054721 -0.69763,3.4057705 -2.0927,4.8008999 -1.31312,1.3130678 -2.87239,1.9696005 -4.6778,1.96960001 l -2.2158,0 c -0.41038,4.9e-7 -0.82072,4.9e-7 -1.231,0 -0.41038,-0.0820661 -0.82072,-0.24619926 -1.231,-0.4924 -0.16418,9.9e-7 -0.24625,-0.0410323 -0.2462,-0.12310001 l 0,-0.1231 -0.2462,0 c -0.16418,-0.1641319 -0.28728,-0.2461985 -0.3693,-0.2462 l -0.1231,0 -0.2462,0 c -0.41038,-0.1641317 -0.82071,-0.1641317 -1.231,0 l -0.2462,0 0,0.2462 c -0.24625,1.2e-6 -0.45141,0.082068 -0.6155,0.24620001 C 370.05777,0 366.48787,0.4923995 362.30251,0.49239999 c -2.95443,-4.9e-7 -5.53953,-0.20516695 -7.7553,-0.61549999 -2.21583,-0.49239938 -4.26749,-1.1899653 -6.155,-2.0927 -1.96962,-0.9027302 -3.61095,-1.9285625 -4.924,-3.0774999 -1.23101,-1.2309935 -2.21581,-2.5030255 -2.9544,-3.8161 -0.73861,-1.3951231 -1.23101,-2.7902551 -1.4772,-4.1854001 -0.24621,-1.477185 -0.36931,-2.872317 -0.3693,-4.1854 -10e-6,-3.036446 0.61549,-5.867743 1.8465,-8.4939 1.23099,-2.708171 3.85712,-4.965002 7.8784,-6.7705 1.88751,-0.738566 3.93917,-1.313032 6.155,-1.7234 2.21577,-0.492365 4.80087,-0.738564 7.7553,-0.7386 l 0.2462,0 0.2462,0 0.7386,0 0.2462,0 1.1079,0 0.4924,0 0.1231,0 c -4e-5,3.6e-5 0.041,0.0821 0.1231,0.2462 l 0.7386,0 c 0.65649,3.5e-5 1.14889,0.0821 1.4772,0.2462 0.57443,0.0821 1.06682,3.5e-5 1.4772,-0.2462 0.41029,-0.328231 0.73856,-0.697531 0.9848,-1.1079 0.24616,-0.410296 0.32822,-0.861663 0.2462,-1.3541 -0.0821,-0.574428 -0.32831,-1.066828 -0.7386,-1.4772 -0.16418,-0.24616 -0.41038,-0.451327 -0.7386,-0.6155 -0.24624,-0.24616 -0.49244,-0.451326 -0.7386,-0.6155 -4e-5,-0.164093 -0.0411,-0.246159 -0.1231,-0.246199 -0.0821,4e-5 -0.20521,-0.08203 -0.3693,-0.2462 l -0.2462,-0.2462 -0.2462,0 -0.2462,-0.2462 c -0.16417,4.1e-5 -0.24624,-0.08203 -0.2462,-0.2462 l -0.2462,0 c -0.16417,-0.164092 -0.28727,-0.246159 -0.3693,-0.2462 -0.0821,4.1e-5 -0.20521,-0.08203 -0.3693,-0.2462 -1.64137,-0.574425 -3.56994,-0.861658 -5.7857,-0.8617 -2.5441,4.2e-5 -4.80093,0.451408 -6.7705,1.3541 -0.24623,0.164174 -0.49243,0.328307 -0.7386,0.4924 -0.24623,0.164174 -0.49242,0.328307 -0.7386,0.4924 -1.47722,0.902772 -2.99546,1.272072 -4.5547,1.107899 -1.55929,-0.164093 -2.87235,-0.861659 -3.9392,-2.092699 -0.73862,-0.574425 -1.27205,-1.230958 -1.6003,-1.9696 -0.24621,-0.820623 -0.36931,-1.682322 -0.3693,-2.5851 -1e-5,-0.738554 0.082,-1.43612 0.2462,-2.0927 0.16412,-0.738552 0.49239,-1.354051 0.9848,-1.8465 0.24618,-0.410283 0.49238,-0.73855 0.7386,-0.9848 0.24618,-0.246149 0.49238,-0.492349 0.7386,-0.7386 0.57445,-0.328215 1.10788,-0.656481 1.6003,-0.9848 0.49238,-0.328214 1.06685,-0.615447 1.7234,-0.8617 3.44678,-1.969545 7.91941,-2.954344 13.4179,-2.9544 m 9.4787,42.592599 c 2.21575,-1.723384 3.32365,-4.103315 3.3237,-7.1398 -5e-5,-0.902711 -0.28728,-1.64131 -0.8617,-2.2158 -0.49245,-0.656509 -1.14898,-1.107875 -1.9696,-1.3541 -0.41038,-0.164108 -0.73864,-0.287208 -0.9848,-0.3693 -0.24624,-0.08204 -0.49244,-0.123075 -0.7386,-0.1231 -1.72344,-0.492374 -3.56994,-0.738574 -5.5395,-0.7386 -3.2827,2.6e-5 -5.90883,0.738625 -7.8784,2.2158 -1.88756,1.148956 -2.83133,2.995454 -2.8313,5.5395 l 0,0.2462 c -3e-5,2.133749 0.77961,3.734047 2.3389,4.8009 0.73857,0.656546 1.6413,1.107912 2.7082,1.3541 1.06683,0.246211 2.21577,0.369311 3.4468,0.3693 1.80543,1.1e-5 3.44676,-0.205155 4.924,-0.6155 1.55923,-0.410321 2.91332,-1.066854 4.0623,-1.9696"
       style="font-size:123.09999847px;fill:#18a5d1;font-family:Luxa"
       id="path3088" />
    <path
       d="m 408.7343,0 -2.0927,0 c -1.88755,0 -3.56992,-0.69756596 -5.0471,-2.0927 -1.39515,-1.4771964 -2.09271,-3.1595613 -2.0927,-5.0470999 l 0,-44.9314991 c -10e-6,-1.88748 0.69755,-3.528811 2.0927,-4.924 1.47718,-1.477142 3.15955,-2.215741 5.0471,-2.2158 l 2.0927,0 c 2.05164,5.9e-5 3.77504,0.738658 5.1702,2.2158 1.47717,1.395189 2.21577,3.03652 2.2158,4.924 l 0,44.9314991 c -3e-5,1.8875386 -0.73863,3.5699035 -2.2158,5.0470999 C 412.50934,-0.69756596 410.78594,0 408.7343,0 m 5.7857,-71.890399 c -3e-5,1.805537 -0.6976,3.405835 -2.0927,4.8009 -1.31309,1.313132 -2.91339,1.969665 -4.8009,1.9696 -1.96962,6.5e-5 -3.61095,-0.656468 -4.924,-1.9696 -1.23102,-1.395065 -1.84652,-2.995363 -1.8465,-4.8009 -2e-5,-0.410261 -2e-5,-0.820594 0,-1.231 0.082,-0.492326 0.24618,-0.943693 0.4924,-1.3541 0.57445,-1.395058 1.43615,-2.42089 2.5851,-3.0775 1.23098,-0.738522 2.46198,-1.107821 3.693,-1.1079 1.31304,7.9e-5 2.54404,0.369378 3.693,1.1079 1.23097,0.65661 2.1337,1.682442 2.7082,3.0775 0.1641,0.410407 0.2872,0.861774 0.3693,1.3541 0.082,0.410406 0.12307,0.820739 0.1231,1.231"
       style="font-size:123.09999847px;fill:#18a5d1;font-family:Luxa"
       id="path3090" />
    <path
       d="m 435.14118,8.4938999 c -0.24622,0.8206573 -0.82069,1.3951234 -1.7234,1.7234001 -0.82069,0.328256 -1.64135,0.287223 -2.462,-0.1231 l -1.3541,-0.6155001 c -0.82068,-0.2462092 -1.39515,-0.779642 -1.7234,-1.6003 -0.32828,-0.8206737 -0.28725,-1.6823728 0.1231,-2.5851 L 430.21718,0.2462 c 0.41032,-0.65653292 0.53342,-1.3951322 0.3693,-2.2158 -0.0821,-0.8206638 -0.41035,-1.5592631 -0.9848,-2.2157999 -0.90275,-0.9027283 -1.43618,-2.0106272 -1.6003,-3.3237 -0.16415,-1.3951244 0.041,-2.6671561 0.6155,-3.8161001 0.32825,-0.902721 0.86168,-1.682353 1.6003,-2.3389 1.06685,-1.066852 2.29785,-1.682351 3.693,-1.8465 1.39511,-0.246184 2.66714,-0.08205 3.8161,0.4924 1.23097,0.492415 2.25681,1.354114 3.0775,2.5851 0.82064,1.148945 1.23097,2.5030434 1.231,4.0623001 -3e-5,0.4103413 -0.0411,0.8206742 -0.1231,1.231 -0.0821,0.3282735 -0.2052,0.6975731 -0.3693,1.1079 l -6.4012,14.5257998"
       style="font-size:123.09999847px;fill:#18a5d1;font-family:Luxa"
       id="path3092" />
    <path
       d="m 502.49995,-9.7248999 c -1e-5,-1.1489221 0.28722,-2.2157881 0.8617,-3.2006001 0.57445,-0.984786 1.31305,-1.846485 2.2158,-2.5851 l 22.158,-18.3419 c 2.54402,-2.05163 4.59569,-3.857095 6.155,-5.4164 0.90269,-0.738559 1.64129,-1.436125 2.2158,-2.092699 0.65648,-0.656492 1.27198,-1.395091 1.8465,-2.2158 0.98475,-1.477155 1.72335,-2.831254 2.2158,-4.0623 0.49235,-1.230952 0.73855,-2.667117 0.7386,-4.3085 -5e-5,-3.364678 -0.90279,-5.826676 -2.7082,-7.386 -1.96965,-1.723339 -4.43165,-2.585038 -7.386,-2.5851 -3.20064,6.2e-5 -5.82677,0.861761 -7.8784,2.5851 -0.5745,0.410392 -1.10793,0.820725 -1.6003,1.231 -0.49243,0.410391 -0.98483,0.943824 -1.4772,1.6003 -1.39516,1.231055 -3.07753,1.887588 -5.0471,1.9696 -1.88756,0.08212 -3.61096,-0.492345 -5.1702,-1.7234 -0.90275,-0.738543 -1.60032,-1.559209 -2.0927,-2.462 -0.49242,-0.984741 -0.77965,-1.96954 -0.8617,-2.9544 -2e-5,-1.066804 0.16411,-2.092636 0.4924,-3.0775 0.41031,-0.984734 0.98478,-1.887467 1.7234,-2.7082 0.16411,6.7e-5 0.24618,-0.04097 0.2462,-0.1231 -2e-5,-0.082 0.082,-0.123032 0.2462,-0.1231 0.90271,-1.066798 1.84648,-2.010564 2.8313,-2.8313 1.06684,-0.902662 2.17474,-1.682295 3.3237,-2.3389 0.98477,-0.65646 2.09267,-1.230926 3.3237,-1.7234 1.23097,-0.492325 2.46197,-0.943691 3.693,-1.3541 1.3951,-0.410257 2.8723,-0.656457 4.4316,-0.7386 1.55923,-0.164057 3.15952,-0.246123 4.8009,-0.2462 4.02122,7.7e-5 7.59111,0.574543 10.7097,1.7234 3.28261,1.066941 5.99081,2.626206 8.1246,4.6778 1.14887,0.984869 2.1747,2.133802 3.0775,3.4468 0.90267,1.231066 1.6823,2.544131 2.3389,3.9392 1.313,3.036527 1.96953,6.237123 1.9696,9.6018 l 0,0.2462 c -7e-5,1.559318 -0.12317,3.036517 -0.3693,4.4316 -0.1642,1.39518 -0.45144,2.749279 -0.8617,4.0623 -0.49247,1.231043 -1.0259,2.462042 -1.6003,3.693 -0.57453,1.148973 -1.31313,2.297905 -2.2158,3.446799 -0.82073,0.984837 -1.72346,2.051703 -2.7082,3.2006 -0.98486,1.148967 -2.13379,2.297899 -3.4468,3.4468 -1.31312,0.98483 -2.70826,2.092729 -4.1854,3.3237 -1.47725,1.231027 -3.03652,2.462026 -4.6778,3.693 l -6.4012,5.1702 c -0.73864,0.492419 -0.94381,1.231018 -0.6155,2.2158 0.32822,0.902749 0.94372,1.354115 1.8465,1.3541 l 19.696,0 c 1.8054,1.5e-5 3.2826,0.615515 4.4316,1.8465 1.23093,1.148946 1.84643,2.544078 1.8465,4.1854001 l 0,2.8313 c -7e-5,1.8054712 -0.61557,3.323703 -1.8465,4.5546999 -1.149,1.23100062 -2.6262,1.8465 -4.4316,1.8465 l -42.1002,0 c -2.13375,0 -3.98025,-0.77963254 -5.5395,-2.3389 -1.55928,-1.5592627 -2.33891,-3.4057609 -2.3389,-5.5394999 l 0,-1.8465"
       style="font-size:123.09999847px;fill:#18a5d1;font-family:Luxa"
       id="path3094" />
    <path
       d="m 626.59243,-53.794699 c 1.55919,4.431649 2.33883,9.396677 2.3389,14.895099 l 0,0.3693 c -7e-5,5.4985 -0.77971,10.463528 -2.3389,14.8951 -1.6414,4.759886 -3.81617,8.863215 -6.5243,12.31 -2.79033,3.5288746 -6.07299,6.2781051 -9.848,8.2477 -3.61098,2.0516677 -7.71431,3.0775 -12.31,3.0775 -4.43164,0 -8.49393,-0.984799 -12.1869,-2.9544 -3.77509,-1.969595 -7.01672,-4.6777923 -9.7249,-8.1246 -1.39515,-1.805454 -2.62615,-3.692985 -3.693,-5.6626 -1.06688,-2.051648 -2.01065,-4.226412 -2.8313,-6.5243 -0.73861,-2.379907 -1.31308,-4.800872 -1.7234,-7.2629 -0.41034,-2.544033 -0.61551,-5.129131 -0.6155,-7.7553 l 0,-0.2462 c -10e-6,-2.626092 0.20516,-5.170156 0.6155,-7.632199 0.41032,-2.544018 0.98479,-5.006016 1.7234,-7.386 1.55925,-4.513609 3.73402,-8.616938 6.5243,-12.31 1.39511,-1.723333 2.91334,-3.282598 4.5547,-4.6778 1.64131,-1.395062 3.40574,-2.585027 5.2933,-3.5699 3.8571,-2.051591 7.96043,-3.077423 12.31,-3.0775 2.21576,7.7e-5 4.34949,0.28731 6.4012,0.8617 2.05162,0.492476 4.02121,1.190042 5.9088,2.0927 1.88748,1.06694 3.61087,2.297938 5.1702,3.693 1.64127,1.313136 3.1595,2.831368 4.5547,4.5547 2.62607,3.364796 4.7598,7.427092 6.4012,12.1869 m -28.5592,37.422399 c 2.46195,1.7e-5 4.75982,-0.615483 6.8936,-1.8465 2.13368,-1.23098 3.93915,-2.831279 5.4164,-4.8009 1.55921,-2.051641 2.74918,-4.390539 3.5699,-7.0167 0.90267,-2.708167 1.35404,-5.539464 1.3541,-8.4939 -6e-5,-2.708158 -0.45143,-5.539455 -1.3541,-8.493899 -1.47726,-4.595682 -3.69305,-8.042479 -6.6474,-10.3404 -2.87238,-2.297807 -5.94988,-3.446739 -9.2325,-3.4468 -3.28271,6.1e-5 -6.40124,1.148993 -9.3556,3.4468 -2.87236,2.297921 -5.04713,5.744718 -6.5243,10.3404 -0.41036,1.313112 -0.73863,2.585144 -0.9848,3.8161 -0.16416,1.231041 -0.24623,2.503074 -0.2462,3.816099 l 0,0.8617 0,0.8617 c 0.082,2.872369 0.57444,5.580566 1.4772,8.1246 0.90271,2.544094 2.09267,4.800925 3.5699,6.7705 1.55923,1.969621 3.3647,3.528886 5.4164,4.6778 2.05163,1.14895 4.26743,1.723417 6.6474,1.7234 m 5.0471,-22.4042 c -5e-5,1.723438 -0.49245,3.241669 -1.4772,4.5547 -0.90278,1.231033 -2.09274,1.846533 -3.5699,1.8465 -1.39517,3.3e-5 -2.58514,-0.615467 -3.5699,-1.8465 -0.90277,-1.230964 -1.39517,-2.667129 -1.4772,-4.3085 l 0,-0.2462 0,-0.2462 c -4e-5,-0.656493 0.12306,-1.436126 0.3693,-2.338899 0.4103,-1.313024 1.02579,-2.297823 1.8465,-2.9544 0.90269,-0.656489 1.84646,-0.984755 2.8313,-0.9848 0.98476,4.5e-5 1.88749,0.328311 2.7082,0.9848 0.90269,0.656577 1.55922,1.641376 1.9696,2.9544 0.16409,0.410374 0.24615,0.86174 0.2462,1.354099 0.082,0.410373 0.12305,0.820706 0.1231,1.231 -5e-5,1.723438 -0.49245,3.241669 -1.4772,4.5547 -0.90278,1.231033 -2.09274,1.846533 -3.5699,1.8465 -1.39517,3.3e-5 -2.58514,-0.615467 -3.5699,-1.8465 -0.90277,-1.230964 -1.39517,-2.667129 -1.4772,-4.3085 l 0,-0.2462 0,-0.2462 c -4e-5,-0.656493 0.12306,-1.436126 0.3693,-2.338899 0.4103,-1.313024 1.02579,-2.297823 1.8465,-2.9544 0.90269,-0.656489 1.84646,-0.984755 2.8313,-0.9848 0.98476,4.5e-5 1.88749,0.328311 2.7082,0.9848 0.90269,0.656577 1.55922,1.641376 1.9696,2.9544 0.16409,0.410374 0.24615,0.86174 0.2462,1.354099 0.082,0.410373 0.12305,0.820706 0.1231,1.231"
       style="font-size:123.09999847px;fill:#18a5d1;font-family:Luxa"
       id="path3096" />
    <path
       d="m 667.97518,-75.090999 c 0.9027,0.656608 1.60026,1.518307 2.0927,2.5851 0.49236,0.984871 0.73856,2.051737 0.7386,3.2006 l 0,0.2462 0,3.0775 0,58.8417991 c -4e-5,1.8875386 -0.6976,3.5699035 -2.0927,5.0470999 C 667.40068,-0.69756596 665.71832,0 663.66668,0 l -2.0927,0 c -2.05169,0 -3.77509,-0.69756596 -5.1702,-2.0927 -1.31309,-1.4771964 -1.96962,-3.1595613 -1.9696,-5.0470999 l 0,-47.6396991 c -2e-5,-0.738545 -0.24622,-1.271978 -0.7386,-1.6003 -0.49242,-0.410277 -1.06688,-0.533377 -1.7234,-0.3693 l -3.07749,0.7386 c -1.88756,0.492455 -3.73405,0.287289 -5.5395,-0.6155 -1.72342,-0.984743 -2.87235,-2.420908 -3.4468,-4.3085 l -0.4924,-1.9696 c -0.49241,-1.887469 -0.24621,-3.692934 0.7386,-5.4164 1.06685,-1.805397 2.54405,-2.995362 4.4316,-3.5699 l 13.66409,-3.8161 3.0775,-0.7386 c 1.31304,-0.410257 2.503,-0.45129 3.5699,-0.1231 1.1489,0.328343 2.17473,0.820742 3.0775,1.4772"
       style="font-size:123.09999847px;fill:#18a5d1;font-family:Luxa"
       id="path3098" />
    <path
       d="m 681.99515,-52.686799 0,-0.3693 c -2e-5,-1.641279 0.12308,-3.200544 0.3693,-4.6778 0.32825,-1.559208 0.90272,-3.036406 1.7234,-4.4316 1.23098,-3.118468 3.11851,-5.703566 5.6626,-7.7553 1.14891,-0.984729 2.42094,-1.887462 3.8161,-2.7082 1.3951,-0.90266 2.91334,-1.682292 4.5547,-2.3389 1.55923,-0.656458 3.20056,-1.107824 4.924,-1.3541 1.80543,-0.32819 3.69296,-0.492323 5.6626,-0.4924 1.88749,7.7e-5 3.73399,0.16421 5.5395,0.4924 1.80542,0.246276 3.52881,0.697642 5.1702,1.3541 3.20054,1.231074 6.03184,2.913439 8.49389,5.0471 1.14888,1.149002 2.17471,2.380001 3.0775,3.693 0.98474,1.313131 1.80541,2.66723 2.462,4.0623 1.14887,2.297926 1.84644,4.759924 2.0927,7.386 l 0,1.231 0,26.097199 c -6e-5,2.379959 -0.16419,4.554723 -0.4924,6.5243 -0.24626,1.887553 -0.69763,3.651984 -1.3541,5.2933 -1.14899,3.200613 -2.91342,6.0319097 -5.2933,8.4939001 -2.46205,2.3799381 -5.29335,4.1443696 -8.4939,5.2932999 -1.80551,0.574468 -3.61097,1.02583416 -5.41639,1.35410001 C 712.68804,-0.16413317 710.75947,0 708.70785,0 c -3.11857,0 -5.90884,-0.28723304 -8.3708,-0.86169999 -2.46203,-0.57446521 -4.71886,-1.39513101 -6.7705,-2.46200001 -0.65656,-0.4103296 -1.31309,-0.8206625 -1.9696,-1.2309999 -0.57449,-0.492395 -1.18999,-0.9437612 -1.8465,-1.3541 -1.80549,-1.3130595 -2.83132,-3.0364577 -3.0775,-5.1702001 -0.24622,-2.215787 0.32825,-4.144351 1.7234,-5.7857 l 0.8617,-0.8617 c 1.39511,-1.395114 3.15954,-2.21578 5.2933,-2.462 1.47717,2e-5 3.03644,0.49242 4.6778,1.4772 0.24617,0.164152 0.49237,0.328285 0.7386,0.4924 0.24617,0.164152 0.49237,0.328285 0.7386,0.4924 0.24617,0.164151 0.5334,0.369318 0.8617,0.6155 0.4103,0.16415 0.73856,0.328284 0.9848,0.4924 1.55923,0.656549 3.40573,0.984816 5.5395,0.9848 0.82062,1.6e-5 1.51819,-0.04102 2.0927,-0.1231 0.65649,-0.08205 1.27199,-0.205151 1.8465,-0.3693 1.31302,-0.410317 2.50298,-1.272016 3.5699,-2.5851 0.73855,-0.73858 1.31302,-1.682346 1.7234,-2.8313 0.41028,-1.14891 0.69751,-2.503009 0.8617,-4.0623 0.082,-0.246174 0.12305,-0.57444 0.1231,-0.9848 -5e-5,-0.492373 -0.0821,-0.943739 -0.2462,-1.3541 -0.16419,-0.492371 -0.41038,-0.861671 -0.7386,-1.1079 -0.32832,-0.24617 -0.82072,-0.287204 -1.4772,-0.1231 -2.37998,0.492429 -4.75991,0.738629 -7.1398,0.7386 -2.37997,2.9e-5 -4.71887,-0.246171 -7.0167,-0.7386 -0.65657,-0.164104 -1.27207,-0.328237 -1.8465,-0.4924 -0.5745,-0.164103 -1.14897,-0.328236 -1.7234,-0.4924 -3.36476,-1.395101 -6.15503,-3.1185 -8.3708,-5.1702 -2.46202,-2.215762 -4.34955,-4.759826 -5.6626,-7.632199 -0.65655,-1.395089 -1.18998,-2.831255 -1.6003,-4.3085 -0.32828,-1.559218 -0.49242,-3.118483 -0.4924,-4.6778 l 0,-0.2462 0,-0.4924 m 26.7127,-7.0167 c -1.96964,5.9e-5 -3.56994,0.697625 -4.8009,2.0927 -1.23104,1.395189 -1.84654,3.036521 -1.8465,4.924 -4e-5,0.410385 -4e-5,0.820718 0,1.231 0.082,0.328317 0.24616,0.73865 0.4924,1.231 0.57443,1.395182 1.43613,2.462047 2.5851,3.2006 1.14889,0.738646 2.33886,1.107945 3.5699,1.1079 1.31302,4.5e-5 2.54402,-0.369254 3.693,-1.1079 1.23095,-0.738553 2.13368,-1.805418 2.7082,-3.2006 0.16408,-0.49235 0.28718,-0.902683 0.3693,-1.231 0.082,-0.410282 0.12305,-0.820615 0.1231,-1.231 -5e-5,-1.887479 -0.65658,-3.528811 -1.9696,-4.924 -1.23105,-1.395075 -2.87238,-2.092641 -4.924,-2.0927"
       style="font-size:123.09999847px;fill:#18a5d1;font-family:Luxa"
       id="path3100" />
  </g>
  <path
     opacity=".6"
     fill="#f3b20c"
     d="M1213.8 222.2l3.1 10.2-213.6 102.9-23.6-66.7z"
     id="path26" />
  <g
     transform="translate(43.694 487.33)"
     style="font-size:335px;fill:#18a5d1;font-family:Luxa"
     id="text28">
    <path
       d="m 192.29,-160.13 c 4.24314,9.38015 6.3648,19.76514 6.365,31.155 l 0,0.67 c -2e-4,11.61345 -2.12186,22.11011 -6.365,31.49 -2.01019,4.913425 -4.57852,9.491754 -7.705,13.735 -2.90352,4.020079 -6.14185,7.816742 -9.715,11.39 -3.79684,3.796735 -7.9285,7.146731 -12.395,10.05 -4.46682,2.680059 -9.15682,5.136723 -14.07,7.37 -10.4968,4.02005 -21.88679,6.030048 -34.17,6.03 -5.80678,4.8e-5 -11.0551,-0.334951 -15.745,-1.005 -4.466761,-0.893283 -8.486757,-1.898282 -12.06,-3.015 l -0.335,0 c -0.223419,5.2e-5 -0.558419,-0.223281 -1.005,-0.67 -0.446751,5.3e-5 -0.893418,-0.111614 -1.34,-0.335 -0.44675,-0.22328 -0.893416,-0.111613 -1.34,0.335 -4.243412,5.3e-5 -6.365076,2.121717 -6.365,6.365 l 0,27.135 c -7.6e-5,5.136681 -1.898407,9.7150097 -5.695,13.735 C 66.7766,-1.8983314 62.198271,0 56.615,0 L 50.92,0 C 45.336621,0 40.646626,-1.8983314 36.85,-5.695 33.276633,-9.7149903 31.489969,-14.293319 31.49,-19.43 l 0,-170.18 c -3.1e-5,-5.13647 1.786633,-9.60313 5.36,-13.4 3.796626,-4.01979 8.486621,-6.02979 14.07,-6.03 l 5.695,0 0.67,0 56.95,0 0.67,0 1.675,0 0.67,0 c 11.38987,2.1e-4 21.77486,2.12187 31.155,6.365 5.13651,2.0102 9.82651,4.46686 14.07,7.37 4.4665,2.68019 8.59816,5.80686 12.395,9.38 3.57315,3.79685 6.81148,7.81684 9.715,12.06 3.12648,4.02017 5.69481,8.5985 7.705,13.735 m -96.145,31.825 c -9.6e-5,4.91346 1.786569,9.26845 5.36,13.065 3.79656,3.79678 8.26322,5.69511 13.4,5.695 5.35988,1.1e-4 9.71488,-1.89822 13.065,-5.695 3.34987,-3.79655 5.02487,-8.15154 5.025,-13.065 -1.3e-4,-1.11654 -0.1118,-2.12154 -0.335,-3.015 -1.3e-4,-1.11653 -0.33513,-2.45653 -1.005,-4.02 -1.56346,-3.79653 -3.90846,-6.58819 -7.035,-8.375 -3.12679,-2.00985 -6.47678,-3.01485 -10.05,-3.015 -3.35011,1.5e-4 -6.70011,1.00515 -10.05,3.015 -3.12677,1.78681 -5.471766,4.57847 -7.035,8.375 -0.446764,1.56347 -0.781763,2.90347 -1.005,4.02 -0.22343,0.89346 -0.335096,1.89846 -0.335,3.015"
       style="font-size:335px;fill:#18a5d1;font-family:Luxa"
       id="path3114" />
    <path
       d="m 369.07055,-209.375 c 4.24316,2.1e-4 8.03982,1.11687 11.39,3.35 3.34981,2.0102 5.91814,4.6902 7.705,8.04 1.78647,3.12686 2.67981,6.70019 2.68,10.72 -1.9e-4,4.02018 -1.22853,7.81685 -3.685,11.39 l -28.14,39.865 -2.01,4.02 -8.375,12.06 c -4.46681,6.47678 -7.81681,13.51177 -10.05,21.105 -2.01014,7.593425 -3.01514,15.410083 -3.015,23.45 l 0,39.195 0,16.75 c -1.4e-4,5.136681 -2.01014,9.7150097 -6.03,13.735 -3.7968,3.7966686 -8.37512,5.695 -13.735,5.695 l -6.03,0 c -5.36011,0 -10.0501,-1.8983314 -14.07,-5.695 -3.79676,-4.0199903 -5.69509,-8.598319 -5.695,-13.735 l 0,-19.765 0,-35.51 c -9e-5,-7.816584 -1.11676,-15.521576 -3.35,-23.115 -2.23342,-7.59323 -5.47175,-14.51655 -9.715,-20.77 l -7.705,-12.06 c -0.44674,-0.66987 -1.00507,-1.33987 -1.675,-2.01 -0.44674,-0.66987 -0.8934,-1.5632 -1.34,-2.68 l -27.805,-40.535 c -2.45671,-3.57315 -3.7967,-7.36982 -4.02,-11.39 -4e-5,-4.01981 0.78163,-7.59314 2.345,-10.72 1.78662,-3.3498 4.24329,-6.0298 7.37,-8.04 3.34995,-2.23313 7.25828,-3.34979 11.725,-3.35 l 1.34,0 c 3.7966,2.1e-4 7.25827,0.89354 10.385,2.68 3.34993,1.56354 5.91826,3.90854 7.705,7.035 l 28.81,43.885 c 2.00989,3.57349 5.02489,5.36015 9.045,5.36 4.01988,1.5e-4 7.03488,-1.78651 9.045,-5.36 l 28.475,-43.885 c 1.11651,-1.78647 2.34484,-3.23813 3.685,-4.355 1.33984,-1.11646 2.90317,-2.23313 4.69,-3.35 2.90317,-1.33979 6.25316,-2.00979 10.05,-2.01"
       style="font-size:335px;fill:#18a5d1;font-family:Luxa"
       id="path3116" />
    <path
       d="m 566.13953,-52.93 c 4.24316,-3.573277 8.82148,-5.024942 13.735,-4.355 5.13647,0.446724 9.60314,2.345055 13.4,5.695 l 1.34,3.015 c 2.0098,2.010047 3.46146,4.466711 4.355,7.37 0.89313,2.680039 1.22813,5.360036 1.005,8.04 -0.22354,2.68003 -1.00521,5.248361 -2.345,7.705 -1.3402,2.45669 -3.23854,4.466688 -5.695,6.03 l 0,0.67 c -3.12686,1.786684 -6.36519,3.573349 -9.715,5.36 -3.12685,1.563345 -6.36518,3.238343 -9.715,5.025 C 559.3277,-2.7916639 544.92271,0 529.28953,0 c -15.63345,0 -30.03844,-2.7916639 -43.215,-8.375 -13.17675,-5.583319 -24.56674,-12.953312 -34.17,-22.11 -9.15672,-9.826626 -16.52671,-20.769949 -22.11,-32.83 -5.1367,-13.399923 -7.70503,-27.023243 -7.705,-40.87 l 0,-1.005 c -3e-5,-6.92322 0.66997,-13.73488 2.01,-20.435 1.33997,-6.9232 3.46163,-13.51153 6.365,-19.765 2.45663,-6.25318 5.47162,-12.17151 9.045,-17.755 3.79662,-5.58316 8.15161,-10.60816 13.065,-15.075 4.4666,-4.91315 9.60326,-9.15648 15.41,-12.73 6.02992,-3.79647 12.28325,-7.14647 18.76,-10.05 12.50656,-5.58313 26.68821,-8.37479 42.545,-8.375 15.63318,2.1e-4 30.03817,2.79187 43.215,8.375 2.45648,1.11687 4.68982,2.23353 6.7,3.35 2.00981,0.89353 3.90814,1.89853 5.695,3.015 l 7.035,4.69 c 4.91313,3.57352 7.59313,8.26352 8.04,14.07 0.66979,5.80684 -1.11687,10.83183 -5.36,15.075 l -2.01,3.015 c -3.79686,3.79682 -8.37519,5.91849 -13.735,6.365 -5.13685,0.22348 -9.82684,-1.45151 -14.07,-5.025 l -2.01,-2.01 c -1.5635,-0.89317 -3.12683,-1.67484 -4.69,-2.345 -1.5635,-0.66984 -3.01516,-1.33984 -4.355,-2.01 -8.26349,-3.57317 -16.41514,-5.35983 -24.455,-5.36 -4.4668,1.7e-4 -8.82179,0.44683 -13.065,1.34 -4.24345,0.8935 -8.26345,2.01016 -12.06,3.35 -7.3701,3.57349 -13.62343,8.26349 -18.76,14.07 -5.36009,5.13681 -9.49175,11.8368 -12.395,20.1 -2.90341,7.37012 -4.35508,15.41011 -4.355,24.12 -8e-5,9.380096 1.45159,17.755087 4.355,25.125 2.45658,7.370073 6.58825,14.070066 12.395,20.1 2.90324,2.90339 5.91823,5.583388 9.045,8.04 3.12656,2.233383 6.58822,4.020048 10.385,5.36 3.79655,1.786711 7.70488,3.12671 11.725,4.02 4.01987,0.893375 8.2632,1.340041 12.73,1.34 4.46653,4.1e-5 8.82152,-0.446625 13.065,-1.34 4.24318,-0.89329 8.26318,-2.009955 12.06,-3.35 2.00984,-1.11662 3.90817,-2.233285 5.695,-3.35 1.7865,-1.116616 3.57316,-2.344948 5.36,-3.685 l 0.67,0"
       style="font-size:335px;fill:#18a5d1;font-family:Luxa"
       id="path3118" />
    <path
       d="m 736.33523,-1.005 c -15.85678,10e-7 -30.26177,-2.6799963 -43.215,-8.04 -13.17674,-5.806652 -24.3434,-13.176644 -33.5,-22.11 -9.60338,-9.603293 -17.08504,-20.546615 -22.445,-32.83 -5.13669,-12.953256 -7.70503,-26.46491 -7.705,-40.535 l 0,-0.67 c -3e-5,-14.29321 2.67997,-27.6932 8.04,-40.2 5.35996,-12.95317 12.84162,-24.00816 22.445,-33.165 9.37994,-9.60315 20.65826,-17.0848 33.835,-22.445 13.62323,-5.58313 27.91655,-8.37479 42.88,-8.375 7.81653,2.1e-4 15.29819,0.78188 22.445,2.345 7.1465,1.34021 13.95816,3.3502 20.435,6.03 12.72981,5.13686 24.00813,12.50686 33.835,22.11 9.60311,9.6035 16.97311,20.54683 22.11,32.83 5.35976,12.5068 8.03976,26.01845 8.04,40.535 l 0,0.335 c -2.4e-4,14.293424 -2.68024,27.805077 -8.04,40.535 -5.36023,12.506719 -12.84188,23.561708 -22.445,33.165 -9.15687,9.156689 -20.43519,16.638348 -33.835,22.445 -13.17683,5.3600037 -27.47015,8.040001 -42.88,8.04 m 0.335,-40.87 c 4.46653,4.2e-5 8.70986,-0.334958 12.73,-1.005 4.01985,-0.89329 7.92818,-2.121622 11.725,-3.685 7.1465,-3.34995 13.5115,-7.928279 19.095,-13.735 5.13649,-5.583267 9.26815,-12.283261 12.395,-20.1 2.90314,-7.146579 4.35481,-15.186571 4.355,-24.12 l 0,-0.67 c -1.9e-4,-8.93322 -1.45186,-17.08488 -4.355,-24.455 -3.12685,-7.81653 -7.25851,-14.51652 -12.395,-20.1 -2.90351,-2.90318 -6.03017,-5.47151 -9.38,-7.705 -3.12683,-2.23317 -6.58849,-4.13151 -10.385,-5.695 -7.14682,-3.57317 -15.18681,-5.35983 -24.12,-5.36 -9.15679,1.7e-4 -17.42011,1.67517 -24.79,5.025 -7.59343,3.35016 -13.95843,7.81682 -19.095,13.4 -5.13675,5.58348 -9.26841,12.28347 -12.395,20.1 -1.34007,3.79679 -2.45674,7.70512 -3.35,11.725 -0.67007,4.02011 -1.00507,8.26344 -1.005,12.73 l 0,0.335 c -7e-5,4.46677 0.33493,8.710096 1.005,12.73 0.89326,4.020088 2.00993,7.928418 3.35,11.725 2.90325,7.593406 7.14658,14.2934 12.73,20.1 5.35991,5.806721 11.83657,10.38505 19.43,13.735 7.36988,3.350044 15.52154,5.025042 24.455,5.025 m -19.765,-63.315 c -1.1e-4,-5.35989 1.89822,-9.93822 5.695,-13.735 4.01988,-3.79654 8.70987,-5.69488 14.07,-5.695 5.35986,1.2e-4 9.82652,1.89846 13.4,5.695 3.79652,3.79678 5.69485,8.37511 5.695,13.735 -1.5e-4,5.3601 -1.89848,9.938429 -5.695,13.735 -3.57348,3.796754 -8.04014,5.695086 -13.4,5.695 -5.36013,8.6e-5 -10.05012,-1.898246 -14.07,-5.695 -3.79678,-3.796571 -5.69511,-8.3749 -5.695,-13.735"
       style="font-size:335px;fill:#18a5d1;font-family:Luxa"
       id="path3120" />
    <path
       d="m 1041.023,-209.375 c 5.1364,2.1e-4 9.6031,2.01021 13.4,6.03 4.0198,3.79687 6.0298,8.26353 6.03,13.4 l 0,170.515 c -2e-4,5.136681 -2.0102,9.7150097 -6.03,13.735 -3.7969,3.7966686 -8.2636,5.695 -13.4,5.695 l -5.695,0 c -7.5935,0 -13.1769,-3.014997 -16.75,-9.045 L 930.47297,-115.24 c -1.34009,-1.78655 -3.35008,-2.23322 -6.03,-1.34 -2.45675,0.89345 -3.68508,2.56845 -3.685,5.025 l 0,92.125 c -8e-5,5.136681 -1.89841,9.7150097 -5.695,13.735 -3.5734,3.7966686 -8.15173,5.695 -13.735,5.695 l -5.695,0 c -5.58338,0 -10.27338,-1.8983314 -14.07,-5.695 -3.57337,-4.0199903 -5.36003,-8.598319 -5.36,-13.735 l 0,-170.515 c -3e-5,-5.13647 1.78663,-9.60313 5.36,-13.4 3.79662,-4.01979 8.48662,-6.02979 14.07,-6.03 l 5.695,0 c 7.59327,2.1e-4 13.17659,3.01521 16.75,9.045 l 87.10003,105.525 c 1.7865,2.010093 3.9081,2.568426 6.365,1.675 2.4565,-1.116572 3.6848,-2.903237 3.685,-5.36 l 0,-91.455 c -2e-4,-5.13647 1.8981,-9.60313 5.695,-13.4 4.0198,-4.01979 8.8214,-6.02979 14.405,-6.03 l 5.695,0 0,0"
       style="font-size:335px;fill:#18a5d1;font-family:Luxa"
       id="path3122" />
  </g>
</svg>
